<svg width="40" height="13" viewBox="0 0 40 13" fill="none" xmlns="http://www.w3.org/2000/svg">
<path d="M9.34375 11.1406C8.48438 11.9271 7.38542 12.3203 6.04688 12.3203C4.39062 12.3203 3.08854 11.7891 2.14062 10.7266C1.19271 9.65885 0.71875 8.19531 0.71875 6.33594C0.71875 4.32552 1.25781 2.77604 2.33594 1.6875C3.27344 0.739583 4.46615 0.265625 5.91406 0.265625C7.85156 0.265625 9.26823 0.901042 10.1641 2.17188C10.6589 2.88542 10.9245 3.60156 10.9609 4.32031H8.55469C8.39844 3.76823 8.19792 3.35156 7.95312 3.07031C7.51562 2.57031 6.86719 2.32031 6.00781 2.32031C5.13281 2.32031 4.44271 2.67448 3.9375 3.38281C3.43229 4.08594 3.17969 5.08333 3.17969 6.375C3.17969 7.66667 3.44531 8.63542 3.97656 9.28125C4.51302 9.92188 5.19271 10.2422 6.01562 10.2422C6.85938 10.2422 7.5026 9.96615 7.94531 9.41406C8.1901 9.11719 8.39323 8.67188 8.55469 8.07812H10.9375C10.7292 9.33333 10.1979 10.3542 9.34375 11.1406Z" fill="white"/>
<path d="M17.2834 9.63281H13.0413L12.2444 12H9.72875L13.8381 0.484375H16.5569L20.635 12H18.0256L17.2834 9.63281ZM16.6116 7.64844L15.1741 3.11719L13.6897 7.64844H16.6116Z" fill="white"/>
<path d="M25.5544 7.48438H23.07V12H20.7184V0.484375H26.3669C27.1742 0.5 27.794 0.598958 28.2262 0.78125C28.6637 0.963542 29.0335 1.23177 29.3356 1.58594C29.5856 1.8776 29.7835 2.20052 29.9294 2.55469C30.0752 2.90885 30.1481 3.3125 30.1481 3.76562C30.1481 4.3125 30.0101 4.85156 29.7341 5.38281C29.458 5.90885 29.0023 6.28125 28.3669 6.5C28.8981 6.71354 29.2731 7.01823 29.4919 7.41406C29.7158 7.80469 29.8278 8.40365 29.8278 9.21094V9.98438C29.8278 10.5104 29.8486 10.8672 29.8903 11.0547C29.9528 11.3516 30.0986 11.5703 30.3278 11.7109V12H27.6794C27.6065 11.7448 27.5544 11.5391 27.5231 11.3828C27.4606 11.0599 27.4268 10.7292 27.4216 10.3906L27.4059 9.32031C27.3955 8.58594 27.2601 8.09635 26.9997 7.85156C26.7445 7.60677 26.2627 7.48438 25.5544 7.48438ZM27.0153 5.39062C27.4945 5.17188 27.7341 4.73958 27.7341 4.09375C27.7341 3.39583 27.5023 2.92708 27.0387 2.6875C26.7783 2.55208 26.3877 2.48438 25.8669 2.48438H23.07V5.57812H25.7966C26.3382 5.57812 26.7445 5.51562 27.0153 5.39062Z" fill="white"/>
<path d="M39.3134 0.484375V2.52344H35.8681V12H33.4463V2.52344H29.9853V0.484375H39.3134Z" fill="white"/>
</svg>
