<svg width="268" height="20" viewBox="0 0 268 20" fill="none" xmlns="http://www.w3.org/2000/svg">
<path d="M51.9893 9H48.4014V1.08301H52.2471C53.2174 1.09733 53.9049 1.37842 54.3096 1.92627C54.5531 2.26286 54.6748 2.66569 54.6748 3.13477C54.6748 3.61816 54.5531 4.00667 54.3096 4.30029C54.1735 4.46501 53.973 4.6154 53.708 4.75146C54.1126 4.89827 54.417 5.13102 54.6211 5.44971C54.8288 5.76839 54.9326 6.15511 54.9326 6.60986C54.9326 7.07894 54.8145 7.49967 54.5781 7.87207C54.4277 8.11914 54.2397 8.32682 54.0142 8.49512C53.7599 8.68848 53.4591 8.82096 53.1118 8.89258C52.7681 8.96419 52.3939 9 51.9893 9ZM51.9517 5.51416H49.9805V7.625H51.9248C52.2721 7.625 52.5425 7.57845 52.7358 7.48535C53.0868 7.31348 53.2622 6.98405 53.2622 6.49707C53.2622 6.08529 53.0921 5.80241 52.752 5.64844C52.5622 5.5625 52.2954 5.51774 51.9517 5.51416ZM52.7734 4.00488C52.9883 3.87598 53.0957 3.64502 53.0957 3.31201C53.0957 2.9432 52.9525 2.69971 52.666 2.58154C52.4189 2.49919 52.1038 2.45801 51.7207 2.45801H49.9805V4.20361H51.9248C52.2721 4.20361 52.555 4.13737 52.7734 4.00488ZM62.1653 1.08301L59.5174 6.02441V9H57.8631V6.02441L55.1238 1.08301H57.0735L58.7171 4.53125L60.2908 1.08301H62.1653ZM70.4647 8.40918C69.8739 8.94987 69.1184 9.22021 68.1981 9.22021C67.0595 9.22021 66.1643 8.85498 65.5126 8.12451C64.8609 7.39046 64.5351 6.38428 64.5351 5.10596C64.5351 3.7238 64.9057 2.65853 65.6469 1.91016C66.2914 1.25846 67.1114 0.932617 68.1068 0.932617C69.4389 0.932617 70.4128 1.36947 71.0287 2.24316C71.3689 2.73372 71.5515 3.22607 71.5766 3.72021H69.9223C69.8148 3.34066 69.677 3.0542 69.5087 2.86084C69.2079 2.51709 68.7621 2.34521 68.1713 2.34521C67.5697 2.34521 67.0953 2.5887 66.7479 3.07568C66.4006 3.55908 66.227 4.24479 66.227 5.13281C66.227 6.02083 66.4096 6.68685 66.7748 7.13086C67.1436 7.57129 67.6109 7.7915 68.1767 7.7915C68.7567 7.7915 69.199 7.60173 69.5033 7.22217C69.6716 7.01807 69.8113 6.71191 69.9223 6.30371H71.5604C71.4172 7.16667 71.052 7.86849 70.4647 8.40918ZM75.78 9.22021C74.6485 9.22021 73.7837 8.91227 73.1857 8.29639C72.3837 7.54085 71.9826 6.45231 71.9826 5.03076C71.9826 3.58057 72.3837 2.49202 73.1857 1.76514C73.7837 1.14925 74.6485 0.841309 75.78 0.841309C76.9115 0.841309 77.7762 1.14925 78.3742 1.76514C79.1727 2.49202 79.572 3.58057 79.572 5.03076C79.572 6.45231 79.1727 7.54085 78.3742 8.29639C77.7762 8.91227 76.9115 9.22021 75.78 9.22021ZM77.343 7.09326C77.7261 6.60986 77.9177 5.92236 77.9177 5.03076C77.9177 4.14274 77.7243 3.45703 77.3376 2.97363C76.9545 2.48665 76.4353 2.24316 75.78 2.24316C75.1247 2.24316 74.6019 2.48486 74.2116 2.96826C73.8213 3.45166 73.6262 4.13916 73.6262 5.03076C73.6262 5.92236 73.8213 6.60986 74.2116 7.09326C74.6019 7.57666 75.1247 7.81836 75.78 7.81836C76.4353 7.81836 76.9563 7.57666 77.343 7.09326ZM86.6919 9H85.0376L81.8042 3.37646V9H80.2627V1.08301H81.9976L85.1504 6.60986V1.08301H86.6919V9ZM93.4412 1.08301V2.48486H91.0726V9H89.4075V2.48486H87.0281V1.08301H93.4412ZM93.7345 1.08301H95.378V9H93.7345V1.08301ZM102.777 9H101.123L97.8895 3.37646V9H96.348V1.08301H98.0829L101.236 6.60986V1.08301H102.777V9ZM108.458 5.94922V1.08301H110.139V5.94922C110.139 6.79069 110.008 7.44596 109.747 7.91504C109.26 8.77441 108.331 9.2041 106.959 9.2041C105.588 9.2041 104.657 8.77441 104.166 7.91504C103.905 7.44596 103.774 6.79069 103.774 5.94922V1.08301H105.455V5.94922C105.455 6.49349 105.52 6.89095 105.649 7.1416C105.849 7.58561 106.286 7.80762 106.959 7.80762C107.629 7.80762 108.064 7.58561 108.264 7.1416C108.393 6.89095 108.458 6.49349 108.458 5.94922ZM111.044 1.08301H112.688V9H111.044V1.08301ZM120.087 9H118.433L115.2 3.37646V9H113.658V1.08301H115.393L118.546 6.60986V1.08301H120.087V9ZM125.94 8.80664C125.503 9.0752 124.966 9.20947 124.328 9.20947C123.279 9.20947 122.42 8.84603 121.75 8.11914C121.052 7.38867 120.703 6.38965 120.703 5.12207C120.703 3.84017 121.055 2.8125 121.761 2.03906C122.466 1.26562 123.399 0.878906 124.559 0.878906C125.565 0.878906 126.373 1.13493 126.982 1.64697C127.594 2.15544 127.945 2.79102 128.034 3.55371H126.407C126.282 3.01302 125.975 2.63525 125.488 2.42041C125.216 2.30225 124.914 2.24316 124.581 2.24316C123.943 2.24316 123.419 2.48486 123.007 2.96826C122.599 3.44808 122.395 4.17139 122.395 5.13818C122.395 6.11214 122.617 6.80143 123.061 7.20605C123.505 7.61068 124.01 7.81299 124.575 7.81299C125.13 7.81299 125.585 7.65365 125.94 7.33496C126.294 7.0127 126.512 6.59196 126.595 6.07275H124.763V4.75146H128.061V9H126.965L126.799 8.01172C126.48 8.3877 126.194 8.65267 125.94 8.80664ZM137.36 1.08301V2.48486H134.991V9H133.326V2.48486H130.946V1.08301H137.36ZM141.09 9.22021C139.959 9.22021 139.094 8.91227 138.496 8.29639C137.694 7.54085 137.293 6.45231 137.293 5.03076C137.293 3.58057 137.694 2.49202 138.496 1.76514C139.094 1.14925 139.959 0.841309 141.09 0.841309C142.222 0.841309 143.087 1.14925 143.685 1.76514C144.483 2.49202 144.882 3.58057 144.882 5.03076C144.882 6.45231 144.483 7.54085 143.685 8.29639C143.087 8.91227 142.222 9.22021 141.09 9.22021ZM142.653 7.09326C143.036 6.60986 143.228 5.92236 143.228 5.03076C143.228 4.14274 143.035 3.45703 142.648 2.97363C142.265 2.48665 141.746 2.24316 141.09 2.24316C140.435 2.24316 139.912 2.48486 139.522 2.96826C139.132 3.45166 138.937 4.13916 138.937 5.03076C138.937 5.92236 139.132 6.60986 139.522 7.09326C139.912 7.57666 140.435 7.81836 141.09 7.81836C141.746 7.81836 142.267 7.57666 142.653 7.09326ZM152.795 5.94922V1.08301H154.476V5.94922C154.476 6.79069 154.345 7.44596 154.084 7.91504C153.597 8.77441 152.668 9.2041 151.296 9.2041C149.925 9.2041 148.994 8.77441 148.504 7.91504C148.242 7.44596 148.111 6.79069 148.111 5.94922V1.08301H149.793V5.94922C149.793 6.49349 149.857 6.89095 149.986 7.1416C150.186 7.58561 150.623 7.80762 151.296 7.80762C151.966 7.80762 152.401 7.58561 152.602 7.1416C152.731 6.89095 152.795 6.49349 152.795 5.94922ZM158.384 7.85596C158.774 7.85596 159.091 7.81299 159.335 7.72705C159.797 7.56234 160.028 7.25618 160.028 6.80859C160.028 6.5472 159.913 6.34489 159.684 6.20166C159.455 6.06201 159.095 5.93848 158.604 5.83105L157.767 5.64307C156.943 5.45687 156.374 5.25456 156.059 5.03613C155.525 4.6709 155.258 4.09977 155.258 3.32275C155.258 2.61377 155.516 2.02474 156.032 1.55566C156.547 1.08659 157.305 0.852051 158.304 0.852051C159.138 0.852051 159.849 1.07406 160.436 1.51807C161.027 1.9585 161.336 2.59945 161.365 3.44092H159.775C159.747 2.96468 159.539 2.6263 159.152 2.42578C158.894 2.29329 158.574 2.22705 158.191 2.22705C157.765 2.22705 157.425 2.31299 157.17 2.48486C156.916 2.65674 156.789 2.89665 156.789 3.20459C156.789 3.48747 156.914 3.69873 157.165 3.83838C157.326 3.93148 157.67 4.04069 158.196 4.16602L159.56 4.49365C160.158 4.63688 160.61 4.82845 160.914 5.06836C161.387 5.44076 161.623 5.97965 161.623 6.68506C161.623 7.40837 161.345 8.00993 160.79 8.48975C160.239 8.96598 159.458 9.2041 158.449 9.2041C157.417 9.2041 156.606 8.96956 156.016 8.50049C155.425 8.02783 155.129 7.37972 155.129 6.55615H156.708C156.759 6.91781 156.857 7.18815 157.004 7.36719C157.272 7.69303 157.732 7.85596 158.384 7.85596ZM167.808 5.54102H163.963V7.57666H168.345V9H162.346V1.08301H168.152V2.48486H163.963V4.16602H167.808V5.54102ZM177.348 1.08301V2.48486H174.98V9H173.315V2.48486H170.935V1.08301H177.348ZM182.492 9V5.46582H179.398V9H177.76V1.08301H179.398V4.10156H182.492V1.08301H184.135V9H182.492ZM185.041 1.08301H186.684V9H185.041V1.08301ZM190.555 7.85596C190.945 7.85596 191.262 7.81299 191.506 7.72705C191.967 7.56234 192.198 7.25618 192.198 6.80859C192.198 6.5472 192.084 6.34489 191.855 6.20166C191.626 6.06201 191.266 5.93848 190.775 5.83105L189.937 5.64307C189.114 5.45687 188.544 5.25456 188.229 5.03613C187.696 4.6709 187.429 4.09977 187.429 3.32275C187.429 2.61377 187.687 2.02474 188.202 1.55566C188.718 1.08659 189.475 0.852051 190.474 0.852051C191.309 0.852051 192.019 1.07406 192.607 1.51807C193.197 1.9585 193.507 2.59945 193.536 3.44092H191.946C191.917 2.96468 191.71 2.6263 191.323 2.42578C191.065 2.29329 190.745 2.22705 190.362 2.22705C189.935 2.22705 189.595 2.31299 189.341 2.48486C189.087 2.65674 188.96 2.89665 188.96 3.20459C188.96 3.48747 189.085 3.69873 189.336 3.83838C189.497 3.93148 189.841 4.04069 190.367 4.16602L191.731 4.49365C192.329 4.63688 192.78 4.82845 193.085 5.06836C193.557 5.44076 193.794 5.97965 193.794 6.68506C193.794 7.40837 193.516 8.00993 192.961 8.48975C192.41 8.96598 191.629 9.2041 190.619 9.2041C189.588 9.2041 188.777 8.96956 188.186 8.50049C187.595 8.02783 187.3 7.37972 187.3 6.55615H188.879C188.929 6.91781 189.028 7.18815 189.175 7.36719C189.443 7.69303 189.903 7.85596 190.555 7.85596ZM199.853 7.85596C200.244 7.85596 200.561 7.81299 200.804 7.72705C201.266 7.56234 201.497 7.25618 201.497 6.80859C201.497 6.5472 201.382 6.34489 201.153 6.20166C200.924 6.06201 200.564 5.93848 200.074 5.83105L199.236 5.64307C198.412 5.45687 197.843 5.25456 197.528 5.03613C196.994 4.6709 196.727 4.09977 196.727 3.32275C196.727 2.61377 196.985 2.02474 197.501 1.55566C198.016 1.08659 198.774 0.852051 199.773 0.852051C200.607 0.852051 201.318 1.07406 201.905 1.51807C202.496 1.9585 202.806 2.59945 202.834 3.44092H201.244C201.216 2.96468 201.008 2.6263 200.621 2.42578C200.364 2.29329 200.043 2.22705 199.66 2.22705C199.234 2.22705 198.894 2.31299 198.639 2.48486C198.385 2.65674 198.258 2.89665 198.258 3.20459C198.258 3.48747 198.383 3.69873 198.634 3.83838C198.795 3.93148 199.139 4.04069 199.665 4.16602L201.03 4.49365C201.628 4.63688 202.079 4.82845 202.383 5.06836C202.856 5.44076 203.092 5.97965 203.092 6.68506C203.092 7.40837 202.815 8.00993 202.26 8.48975C201.708 8.96598 200.928 9.2041 199.918 9.2041C198.887 9.2041 198.075 8.96956 197.485 8.50049C196.894 8.02783 196.598 7.37972 196.598 6.55615H198.178C198.228 6.91781 198.326 7.18815 198.473 7.36719C198.742 7.69303 199.202 7.85596 199.853 7.85596ZM203.638 1.08301H205.281V9H203.638V1.08301ZM212.031 1.08301V2.48486H209.662V9H207.997V2.48486H205.618V1.08301H212.031ZM217.964 5.54102H214.118V7.57666H218.501V9H212.501V1.08301H218.307V2.48486H214.118V4.16602H217.964V5.54102ZM220.593 9.54785C220.529 9.81283 220.409 10.042 220.233 10.2354C220.044 10.443 219.82 10.5988 219.562 10.7026C219.308 10.8101 219.132 10.8638 219.036 10.8638V10.2729C219.344 10.187 219.569 10.0438 219.712 9.84326C219.859 9.64274 219.943 9.36165 219.965 9H219.036V7.39941H220.69V8.78516C220.69 9.02865 220.658 9.28288 220.593 9.54785ZM7.58965 11.083L4.9417 16.0244V19H3.2874V16.0244L0.548141 11.083H2.49785L4.1414 14.5312L5.71513 11.083H7.58965ZM11.4869 19.2202C10.3554 19.2202 9.49065 18.9123 8.89267 18.2964C8.09059 17.5409 7.68955 16.4523 7.68955 15.0308C7.68955 13.5806 8.09059 12.492 8.89267 11.7651C9.49065 11.1493 10.3554 10.8413 11.4869 10.8413C12.6184 10.8413 13.4832 11.1493 14.0811 11.7651C14.8797 12.492 15.2789 13.5806 15.2789 15.0308C15.2789 16.4523 14.8797 17.5409 14.0811 18.2964C13.4832 18.9123 12.6184 19.2202 11.4869 19.2202ZM13.0499 17.0933C13.433 16.6099 13.6246 15.9224 13.6246 15.0308C13.6246 14.1427 13.4312 13.457 13.0445 12.9736C12.6614 12.4867 12.1422 12.2432 11.4869 12.2432C10.8316 12.2432 10.3089 12.4849 9.91855 12.9683C9.52825 13.4517 9.3331 14.1392 9.3331 15.0308C9.3331 15.9224 9.52825 16.6099 9.91855 17.0933C10.3089 17.5767 10.8316 17.8184 11.4869 17.8184C12.1422 17.8184 12.6632 17.5767 13.0499 17.0933ZM20.6801 15.9492V11.083H22.3612V15.9492C22.3612 16.7907 22.2305 17.446 21.9691 17.915C21.4822 18.7744 20.553 19.2041 19.1815 19.2041C17.8101 19.2041 16.8791 18.7744 16.3886 17.915C16.1272 17.446 15.9965 16.7907 15.9965 15.9492V11.083H17.6776V15.9492C17.6776 16.4935 17.7421 16.891 17.871 17.1416C18.0715 17.5856 18.5084 17.8076 19.1815 17.8076C19.8511 17.8076 20.2862 17.5856 20.4867 17.1416C20.6156 16.891 20.6801 16.4935 20.6801 15.9492ZM31.4932 18.4092C30.9023 18.9499 30.1468 19.2202 29.2266 19.2202C28.0879 19.2202 27.1927 18.855 26.541 18.1245C25.8893 17.3905 25.5635 16.3843 25.5635 15.106C25.5635 13.7238 25.9341 12.6585 26.6753 11.9102C27.3198 11.2585 28.1398 10.9326 29.1353 10.9326C30.4673 10.9326 31.4412 11.3695 32.0571 12.2432C32.3973 12.7337 32.5799 13.2261 32.605 13.7202H30.9507C30.8433 13.3407 30.7054 13.0542 30.5371 12.8608C30.2363 12.5171 29.7905 12.3452 29.1997 12.3452C28.5981 12.3452 28.1237 12.5887 27.7764 13.0757C27.429 13.5591 27.2554 14.2448 27.2554 15.1328C27.2554 16.0208 27.438 16.6868 27.8032 17.1309C28.172 17.5713 28.6393 17.7915 29.2051 17.7915C29.7852 17.7915 30.2274 17.6017 30.5317 17.2222C30.7 17.0181 30.8397 16.7119 30.9507 16.3037H32.5889C32.4456 17.1667 32.0804 17.8685 31.4932 18.4092ZM36.8084 19.2202C35.6769 19.2202 34.8121 18.9123 34.2142 18.2964C33.4121 17.5409 33.011 16.4523 33.011 15.0308C33.011 13.5806 33.4121 12.492 34.2142 11.7651C34.8121 11.1493 35.6769 10.8413 36.8084 10.8413C37.9399 10.8413 38.8047 11.1493 39.4026 11.7651C40.2011 12.492 40.6004 13.5806 40.6004 15.0308C40.6004 16.4523 40.2011 17.5409 39.4026 18.2964C38.8047 18.9123 37.9399 19.2202 36.8084 19.2202ZM38.3714 17.0933C38.7545 16.6099 38.9461 15.9224 38.9461 15.0308C38.9461 14.1427 38.7527 13.457 38.366 12.9736C37.9829 12.4867 37.4637 12.2432 36.8084 12.2432C36.1531 12.2432 35.6303 12.4849 35.24 12.9683C34.8497 13.4517 34.6546 14.1392 34.6546 15.0308C34.6546 15.9224 34.8497 16.6099 35.24 17.0933C35.6303 17.5767 36.1531 17.8184 36.8084 17.8184C37.4637 17.8184 37.9847 17.5767 38.3714 17.0933ZM47.7203 19H46.066L42.8326 13.3765V19H41.2911V11.083H43.026L46.1788 16.6099V11.083H47.7203V19ZM51.5907 17.856C51.981 17.856 52.2979 17.813 52.5414 17.7271C53.0033 17.5623 53.2343 17.2562 53.2343 16.8086C53.2343 16.5472 53.1197 16.3449 52.8905 16.2017C52.6614 16.062 52.3015 15.9385 51.8109 15.8311L50.973 15.6431C50.1495 15.4569 49.5801 15.2546 49.265 15.0361C48.7315 14.6709 48.4647 14.0998 48.4647 13.3228C48.4647 12.6138 48.7226 12.0247 49.2382 11.5557C49.7538 11.0866 50.5111 10.8521 51.5102 10.8521C52.3445 10.8521 53.0552 11.0741 53.6425 11.5181C54.2333 11.9585 54.543 12.5994 54.5717 13.4409H52.9818C52.9532 12.9647 52.7455 12.6263 52.3588 12.4258C52.101 12.2933 51.7805 12.2271 51.3974 12.2271C50.9713 12.2271 50.6311 12.313 50.3769 12.4849C50.1226 12.6567 49.9955 12.8966 49.9955 13.2046C49.9955 13.4875 50.1208 13.6987 50.3715 13.8384C50.5326 13.9315 50.8764 14.0407 51.4027 14.166L52.767 14.4937C53.365 14.6369 53.8161 14.8285 54.1205 15.0684C54.5932 15.4408 54.8295 15.9797 54.8295 16.6851C54.8295 17.4084 54.552 18.0099 53.997 18.4897C53.4455 18.966 52.6649 19.2041 51.6552 19.2041C50.6239 19.2041 49.8129 18.9696 49.2221 18.5005C48.6312 18.0278 48.3358 17.3797 48.3358 16.5562H49.9149C49.9651 16.9178 50.0635 17.1882 50.2104 17.3672C50.4789 17.693 50.939 17.856 51.5907 17.856ZM61.0148 15.541H57.1691V17.5767H61.5519V19H55.5524V11.083H61.3586V12.4849H57.1691V14.166H61.0148V15.541ZM68.6934 19H67.0391L63.8057 13.3765V19H62.2642V11.083H63.999L67.1519 16.6099V11.083H68.6934V19ZM75.4427 11.083V12.4849H73.074V19H71.409V12.4849H69.0296V11.083H75.4427ZM84.1288 11.083V12.4849H81.7602V19H80.0951V12.4849H77.7157V11.083H84.1288ZM87.8596 19.2202C86.7281 19.2202 85.8633 18.9123 85.2653 18.2964C84.4632 17.5409 84.0622 16.4523 84.0622 15.0308C84.0622 13.5806 84.4632 12.492 85.2653 11.7651C85.8633 11.1493 86.7281 10.8413 87.8596 10.8413C88.9911 10.8413 89.8558 11.1493 90.4538 11.7651C91.2523 12.492 91.6516 13.5806 91.6516 15.0308C91.6516 16.4523 91.2523 17.5409 90.4538 18.2964C89.8558 18.9123 88.9911 19.2202 87.8596 19.2202ZM89.4226 17.0933C89.8057 16.6099 89.9973 15.9224 89.9973 15.0308C89.9973 14.1427 89.8039 13.457 89.4172 12.9736C89.034 12.4867 88.5148 12.2432 87.8596 12.2432C87.2043 12.2432 86.6815 12.4849 86.2912 12.9683C85.9009 13.4517 85.7058 14.1392 85.7058 15.0308C85.7058 15.9224 85.9009 16.6099 86.2912 17.0933C86.6815 17.5767 87.2043 17.8184 87.8596 17.8184C88.5148 17.8184 89.0358 17.5767 89.4226 17.0933ZM98.3826 19.2202C97.2511 19.2202 96.3864 18.9123 95.7884 18.2964C94.9863 17.5409 94.5853 16.4523 94.5853 15.0308C94.5853 13.5806 94.9863 12.492 95.7884 11.7651C96.3864 11.1493 97.2511 10.8413 98.3826 10.8413C99.5141 10.8413 100.379 11.1493 100.977 11.7651C101.775 12.492 102.175 13.5806 102.175 15.0308C102.175 16.4523 101.775 17.5409 100.977 18.2964C100.379 18.9123 99.5141 19.2202 98.3826 19.2202ZM99.9456 17.0933C100.329 16.6099 100.52 15.9224 100.52 15.0308C100.52 14.1427 100.327 13.457 99.9402 12.9736C99.5571 12.4867 99.0379 12.2432 98.3826 12.2432C97.7273 12.2432 97.2046 12.4849 96.8143 12.9683C96.424 13.4517 96.2288 14.1392 96.2288 15.0308C96.2288 15.9224 96.424 16.6099 96.8143 17.0933C97.2046 17.5767 97.7273 17.8184 98.3826 17.8184C99.0379 17.8184 99.5589 17.5767 99.9456 17.0933ZM107.576 15.9492V11.083H109.257V15.9492C109.257 16.7907 109.126 17.446 108.865 17.915C108.378 18.7744 107.449 19.2041 106.077 19.2041C104.706 19.2041 103.775 18.7744 103.284 17.915C103.023 17.446 102.892 16.7907 102.892 15.9492V11.083H104.573V15.9492C104.573 16.4935 104.638 16.891 104.767 17.1416C104.967 17.5856 105.404 17.8076 106.077 17.8076C106.747 17.8076 107.182 17.5856 107.382 17.1416C107.511 16.891 107.576 16.4935 107.576 15.9492ZM113.654 15.8955H111.946V19H110.329V11.083H114.212C114.767 11.0938 115.193 11.1618 115.491 11.2871C115.791 11.4124 116.046 11.5968 116.253 11.8403C116.425 12.0409 116.561 12.2629 116.662 12.5063C116.762 12.7498 116.812 13.0273 116.812 13.3389C116.812 13.7148 116.717 14.0854 116.527 14.4507C116.337 14.8123 116.024 15.0684 115.587 15.2188C115.953 15.3656 116.21 15.575 116.361 15.8472C116.515 16.1157 116.592 16.5275 116.592 17.0825V17.6143C116.592 17.9759 116.606 18.2212 116.635 18.3501C116.678 18.5542 116.778 18.7046 116.935 18.8013V19H115.115C115.065 18.8245 115.029 18.6831 115.007 18.5757C114.964 18.3537 114.941 18.1263 114.937 17.8936L114.927 17.1577C114.919 16.6528 114.826 16.3162 114.647 16.1479C114.472 15.9797 114.141 15.8955 113.654 15.8955ZM114.658 14.4561C114.988 14.3057 115.152 14.0085 115.152 13.5645C115.152 13.0846 114.993 12.7624 114.674 12.5977C114.495 12.5046 114.227 12.458 113.869 12.458H111.946V14.585H113.82C114.193 14.585 114.472 14.542 114.658 14.4561ZM124.886 15.9492V11.083H126.567V15.9492C126.567 16.7907 126.436 17.446 126.175 17.915C125.688 18.7744 124.759 19.2041 123.387 19.2041C122.016 19.2041 121.085 18.7744 120.594 17.915C120.333 17.446 120.202 16.7907 120.202 15.9492V11.083H121.883V15.9492C121.883 16.4935 121.948 16.891 122.077 17.1416C122.277 17.5856 122.714 17.8076 123.387 17.8076C124.057 17.8076 124.492 17.5856 124.692 17.1416C124.821 16.891 124.886 16.4935 124.886 15.9492ZM130.475 17.856C130.865 17.856 131.182 17.813 131.426 17.7271C131.887 17.5623 132.118 17.2562 132.118 16.8086C132.118 16.5472 132.004 16.3449 131.775 16.2017C131.546 16.062 131.186 15.9385 130.695 15.8311L129.857 15.6431C129.034 15.4569 128.464 15.2546 128.149 15.0361C127.616 14.6709 127.349 14.0998 127.349 13.3228C127.349 12.6138 127.607 12.0247 128.122 11.5557C128.638 11.0866 129.395 10.8521 130.394 10.8521C131.229 10.8521 131.939 11.0741 132.527 11.5181C133.117 11.9585 133.427 12.5994 133.456 13.4409H131.866C131.837 12.9647 131.63 12.6263 131.243 12.4258C130.985 12.2933 130.665 12.2271 130.282 12.2271C129.855 12.2271 129.515 12.313 129.261 12.4849C129.007 12.6567 128.88 12.8966 128.88 13.2046C128.88 13.4875 129.005 13.6987 129.256 13.8384C129.417 13.9315 129.761 14.0407 130.287 14.166L131.651 14.4937C132.249 14.6369 132.7 14.8285 133.005 15.0684C133.477 15.4408 133.714 15.9797 133.714 16.6851C133.714 17.4084 133.436 18.0099 132.881 18.4897C132.33 18.966 131.549 19.2041 130.539 19.2041C129.508 19.2041 128.697 18.9696 128.106 18.5005C127.515 18.0278 127.22 17.3797 127.22 16.5562H128.799C128.849 16.9178 128.948 17.1882 129.095 17.3672C129.363 17.693 129.823 17.856 130.475 17.856ZM139.899 15.541H136.053V17.5767H140.436V19H134.437V11.083H140.243V12.4849H136.053V14.166H139.899V15.541ZM147.189 19.2202C146.057 19.2202 145.192 18.9123 144.594 18.2964C143.792 17.5409 143.391 16.4523 143.391 15.0308C143.391 13.5806 143.792 12.492 144.594 11.7651C145.192 11.1493 146.057 10.8413 147.189 10.8413C148.32 10.8413 149.185 11.1493 149.783 11.7651C150.581 12.492 150.981 13.5806 150.981 15.0308C150.981 16.4523 150.581 17.5409 149.783 18.2964C149.185 18.9123 148.32 19.2202 147.189 19.2202ZM148.752 17.0933C149.135 16.6099 149.326 15.9224 149.326 15.0308C149.326 14.1427 149.133 13.457 148.746 12.9736C148.363 12.4867 147.844 12.2432 147.189 12.2432C146.533 12.2432 146.011 12.4849 145.62 12.9683C145.23 13.4517 145.035 14.1392 145.035 15.0308C145.035 15.9224 145.23 16.6099 145.62 17.0933C146.011 17.5767 146.533 17.8184 147.189 17.8184C147.844 17.8184 148.365 17.5767 148.752 17.0933ZM157.311 12.4849H153.342V14.3057H156.817V15.6807H153.342V19H151.698V11.0938H157.311V12.4849ZM164.611 17.3726H161.695L161.147 19H159.418L162.243 11.083H164.112L166.916 19H165.122L164.611 17.3726ZM164.15 16.0083L163.161 12.8931L162.141 16.0083H164.15ZM173.778 19H172.123L168.89 13.3765V19H167.349V11.083H169.083L172.236 16.6099V11.083H173.778V19ZM179.41 17.3726H176.493L175.946 19H174.216L177.041 11.083H178.91L181.714 19H179.92L179.41 17.3726ZM178.948 16.0083L177.96 12.8931L176.939 16.0083H178.948ZM182.174 11.083H183.828V17.5767H187.749V19H182.174V11.083ZM193.73 11.083L191.082 16.0244V19H189.428V16.0244L186.689 11.083H188.638L190.282 14.5312L191.856 11.083H193.73ZM199.878 11.083V12.4849H197.509V19H195.844V12.4849H193.465V11.083H199.878ZM200.171 11.083H201.815V19H200.171V11.083ZM208.398 18.4092C207.807 18.9499 207.051 19.2202 206.131 19.2202C204.992 19.2202 204.097 18.855 203.446 18.1245C202.794 17.3905 202.468 16.3843 202.468 15.106C202.468 13.7238 202.839 12.6585 203.58 11.9102C204.224 11.2585 205.044 10.9326 206.04 10.9326C207.372 10.9326 208.346 11.3695 208.962 12.2432C209.302 12.7337 209.484 13.2261 209.509 13.7202H207.855C207.748 13.3407 207.61 13.0542 207.442 12.8608C207.141 12.5171 206.695 12.3452 206.104 12.3452C205.503 12.3452 205.028 12.5887 204.681 13.0757C204.334 13.5591 204.16 14.2448 204.16 15.1328C204.16 16.0208 204.342 16.6868 204.708 17.1309C205.077 17.5713 205.544 17.7915 206.11 17.7915C206.69 17.7915 207.132 17.6017 207.436 17.2222C207.605 17.0181 207.744 16.7119 207.855 16.3037H209.493C209.35 17.1667 208.985 17.8685 208.398 18.4092ZM213.084 17.856C213.475 17.856 213.792 17.813 214.035 17.7271C214.497 17.5623 214.728 17.2562 214.728 16.8086C214.728 16.5472 214.613 16.3449 214.384 16.2017C214.155 16.062 213.795 15.9385 213.305 15.8311L212.467 15.6431C211.643 15.4569 211.074 15.2546 210.759 15.0361C210.225 14.6709 209.958 14.0998 209.958 13.3228C209.958 12.6138 210.216 12.0247 210.732 11.5557C211.248 11.0866 212.005 10.8521 213.004 10.8521C213.838 10.8521 214.549 11.0741 215.136 11.5181C215.727 11.9585 216.037 12.5994 216.065 13.4409H214.476C214.447 12.9647 214.239 12.6263 213.853 12.4258C213.595 12.2933 213.274 12.2271 212.891 12.2271C212.465 12.2271 212.125 12.313 211.871 12.4849C211.616 12.6567 211.489 12.8966 211.489 13.2046C211.489 13.4875 211.615 13.6987 211.865 13.8384C212.026 13.9315 212.37 14.0407 212.896 14.166L214.261 14.4937C214.859 14.6369 215.31 14.8285 215.614 15.0684C216.087 15.4408 216.323 15.9797 216.323 16.6851C216.323 17.4084 216.046 18.0099 215.491 18.4897C214.939 18.966 214.159 19.2041 213.149 19.2041C212.118 19.2041 211.307 18.9696 210.716 18.5005C210.125 18.0278 209.83 17.3797 209.83 16.5562H211.409C211.459 16.9178 211.557 17.1882 211.704 17.3672C211.973 17.693 212.433 17.856 213.084 17.856ZM225.095 18.4092C224.504 18.9499 223.749 19.2202 222.829 19.2202C221.69 19.2202 220.795 18.855 220.143 18.1245C219.491 17.3905 219.166 16.3843 219.166 15.106C219.166 13.7238 219.536 12.6585 220.277 11.9102C220.922 11.2585 221.742 10.9326 222.737 10.9326C224.069 10.9326 225.043 11.3695 225.659 12.2432C225.999 12.7337 226.182 13.2261 226.207 13.7202H224.553C224.445 13.3407 224.308 13.0542 224.139 12.8608C223.838 12.5171 223.393 12.3452 222.802 12.3452C222.2 12.3452 221.726 12.5887 221.379 13.0757C221.031 13.5591 220.858 14.2448 220.858 15.1328C220.858 16.0208 221.04 16.6868 221.405 17.1309C221.774 17.5713 222.241 17.7915 222.807 17.7915C223.387 17.7915 223.83 17.6017 224.134 17.2222C224.302 17.0181 224.442 16.7119 224.553 16.3037H226.191C226.048 17.1667 225.683 17.8685 225.095 18.4092ZM230.411 19.2202C229.279 19.2202 228.414 18.9123 227.816 18.2964C227.014 17.5409 226.613 16.4523 226.613 15.0308C226.613 13.5806 227.014 12.492 227.816 11.7651C228.414 11.1493 229.279 10.8413 230.411 10.8413C231.542 10.8413 232.407 11.1493 233.005 11.7651C233.803 12.492 234.203 13.5806 234.203 15.0308C234.203 16.4523 233.803 17.5409 233.005 18.2964C232.407 18.9123 231.542 19.2202 230.411 19.2202ZM231.974 17.0933C232.357 16.6099 232.548 15.9224 232.548 15.0308C232.548 14.1427 232.355 13.457 231.968 12.9736C231.585 12.4867 231.066 12.2432 230.411 12.2432C229.755 12.2432 229.232 12.4849 228.842 12.9683C228.452 13.4517 228.257 14.1392 228.257 15.0308C228.257 15.9224 228.452 16.6099 228.842 17.0933C229.232 17.5767 229.755 17.8184 230.411 17.8184C231.066 17.8184 231.587 17.5767 231.974 17.0933ZM238.422 19.2202C237.291 19.2202 236.426 18.9123 235.828 18.2964C235.026 17.5409 234.625 16.4523 234.625 15.0308C234.625 13.5806 235.026 12.492 235.828 11.7651C236.426 11.1493 237.291 10.8413 238.422 10.8413C239.554 10.8413 240.418 11.1493 241.016 11.7651C241.815 12.492 242.214 13.5806 242.214 15.0308C242.214 16.4523 241.815 17.5409 241.016 18.2964C240.418 18.9123 239.554 19.2202 238.422 19.2202ZM239.985 17.0933C240.368 16.6099 240.56 15.9224 240.56 15.0308C240.56 14.1427 240.366 13.457 239.98 12.9736C239.597 12.4867 239.077 12.2432 238.422 12.2432C237.767 12.2432 237.244 12.4849 236.854 12.9683C236.463 13.4517 236.268 14.1392 236.268 15.0308C236.268 15.9224 236.463 16.6099 236.854 17.0933C237.244 17.5767 237.767 17.8184 238.422 17.8184C239.077 17.8184 239.598 17.5767 239.985 17.0933ZM249.946 19H247.819L245.375 15.541L244.586 16.3521V19H242.958V11.083H244.586V14.3433L247.642 11.083H249.78L246.536 14.3433L249.946 19ZM250.202 11.083H251.846V19H250.202V11.083ZM258.353 15.541H254.507V17.5767H258.89V19H252.891V11.083H258.697V12.4849H254.507V14.166H258.353V15.541ZM262.503 17.856C262.893 17.856 263.21 17.813 263.453 17.7271C263.915 17.5623 264.146 17.2562 264.146 16.8086C264.146 16.5472 264.032 16.3449 263.803 16.2017C263.573 16.062 263.214 15.9385 262.723 15.8311L261.885 15.6431C261.062 15.4569 260.492 15.2546 260.177 15.0361C259.644 14.6709 259.377 14.0998 259.377 13.3228C259.377 12.6138 259.635 12.0247 260.15 11.5557C260.666 11.0866 261.423 10.8521 262.422 10.8521C263.257 10.8521 263.967 11.0741 264.555 11.5181C265.145 11.9585 265.455 12.5994 265.484 13.4409H263.894C263.865 12.9647 263.658 12.6263 263.271 12.4258C263.013 12.2933 262.693 12.2271 262.309 12.2271C261.883 12.2271 261.543 12.313 261.289 12.4849C261.035 12.6567 260.908 12.8966 260.908 13.2046C260.908 13.4875 261.033 13.6987 261.284 13.8384C261.445 13.9315 261.788 14.0407 262.315 14.166L263.679 14.4937C264.277 14.6369 264.728 14.8285 265.033 15.0684C265.505 15.4408 265.742 15.9797 265.742 16.6851C265.742 17.4084 265.464 18.0099 264.909 18.4897C264.358 18.966 263.577 19.2041 262.567 19.2041C261.536 19.2041 260.725 18.9696 260.134 18.5005C259.543 18.0278 259.248 17.3797 259.248 16.5562H260.827C260.877 16.9178 260.976 17.1882 261.122 17.3672C261.391 17.693 261.851 17.856 262.503 17.856ZM266.266 17.3994H267.893V19H266.266V17.3994Z" fill="white"/>
</svg>
