<svg width="128" height="19" viewBox="0 0 128 19" fill="none" xmlns="http://www.w3.org/2000/svg">
<path d="M12.0406 10.4531H3.65V14.8945H13.2125V18H0.122658V0.726562H12.7906V3.78516H3.65V7.45312H12.0406V10.4531ZM28.7938 18H25.1844L18.1297 5.73047V18H14.7664V0.726562H18.5516L25.4305 12.7852V0.726562H28.7938V18ZM43.5195 0.726562V3.78516H38.3516V18H34.7188V3.78516H29.5273V0.726562H43.5195ZM56.4641 10.4531H48.0734V14.8945H57.6359V18H44.5461V0.726562H57.2141V3.78516H48.0734V7.45312H56.4641V10.4531ZM66.5844 11.2266H62.8578V18H59.3305V0.726562H67.8031C69.0141 0.75 69.9438 0.898438 70.5922 1.17188C71.2484 1.44531 71.8031 1.84766 72.2563 2.37891C72.6313 2.81641 72.9281 3.30078 73.1469 3.83203C73.3656 4.36328 73.475 4.96875 73.475 5.64844C73.475 6.46875 73.268 7.27734 72.8539 8.07422C72.4398 8.86328 71.7563 9.42188 70.8031 9.75C71.6 10.0703 72.1625 10.5273 72.4906 11.1211C72.8266 11.707 72.9945 12.6055 72.9945 13.8164V14.9766C72.9945 15.7656 73.0258 16.3008 73.0883 16.582C73.182 17.0273 73.4008 17.3555 73.7445 17.5664V18H69.7719C69.6625 17.6172 69.5844 17.3086 69.5375 17.0742C69.4438 16.5898 69.393 16.0938 69.3852 15.5859L69.3617 13.9805C69.3461 12.8789 69.143 12.1445 68.7523 11.7773C68.3695 11.4102 67.6469 11.2266 66.5844 11.2266ZM68.7758 8.08594C69.4945 7.75781 69.8539 7.10938 69.8539 6.14062C69.8539 5.09375 69.5063 4.39062 68.8109 4.03125C68.4203 3.82813 67.8344 3.72656 67.0531 3.72656H62.8578V8.36719H66.9477C67.7602 8.36719 68.3695 8.27344 68.7758 8.08594ZM87.1414 15.5039C87.993 15.5039 88.6844 15.4102 89.2156 15.2227C90.2234 14.8633 90.7273 14.1953 90.7273 13.2188C90.7273 12.6484 90.4773 12.207 89.9773 11.8945C89.4773 11.5898 88.6922 11.3203 87.6219 11.0859L85.7938 10.6758C83.9969 10.2695 82.7547 9.82812 82.0672 9.35156C80.9031 8.55469 80.3211 7.30859 80.3211 5.61328C80.3211 4.06641 80.8836 2.78125 82.0086 1.75781C83.1336 0.734375 84.7859 0.222656 86.9656 0.222656C88.7859 0.222656 90.3367 0.707031 91.618 1.67578C92.907 2.63672 93.5828 4.03516 93.6453 5.87109H90.1766C90.1141 4.83203 89.6609 4.09375 88.8172 3.65625C88.2547 3.36719 87.5555 3.22266 86.7195 3.22266C85.7898 3.22266 85.0477 3.41016 84.493 3.78516C83.9383 4.16016 83.6609 4.68359 83.6609 5.35547C83.6609 5.97266 83.9344 6.43359 84.4813 6.73828C84.8328 6.94141 85.5828 7.17969 86.7313 7.45312L89.7078 8.16797C91.0125 8.48047 91.9969 8.89844 92.6609 9.42188C93.6922 10.2344 94.2078 11.4102 94.2078 12.9492C94.2078 14.5273 93.6023 15.8398 92.3914 16.8867C91.1883 17.9258 89.4852 18.4453 87.282 18.4453C85.032 18.4453 83.2625 17.9336 81.9734 16.9102C80.6844 15.8789 80.0398 14.4648 80.0398 12.668H83.4852C83.5945 13.457 83.8094 14.0469 84.1297 14.4375C84.7156 15.1484 85.7195 15.5039 87.1414 15.5039ZM95.3984 0.726562H98.9844V18H95.3984V0.726562ZM113.71 0.726562V3.78516H108.542V18H104.909V3.78516H99.718V0.726562H113.71ZM126.655 10.4531H118.264V14.8945H127.827V18H114.737V0.726562H127.405V3.78516H118.264V7.45312H126.655V10.4531Z" fill="white"/>
</svg>
