<svg width="134" height="13" viewBox="0 0 134 13" fill="none" xmlns="http://www.w3.org/2000/svg">
<path d="M7.96094 9.63281H3.71875L2.92188 12H0.40625L4.51562 0.484375H7.23438L11.3125 12H8.70312L7.96094 9.63281ZM7.28906 7.64844L5.85156 3.11719L4.36719 7.64844H7.28906Z" fill="white"/>
<path d="M11.8212 0.484375H14.2275V9.92969H19.9306V12H11.8212V0.484375Z" fill="white"/>
<path d="M20.3225 0.484375H22.7288V9.92969H28.4319V12H20.3225V0.484375Z" fill="white"/>
<path d="M34.5588 12H32.3166V0.484375H35.8166L37.9103 9.53906L39.9884 0.484375H43.4494V12H41.2072V4.21094C41.2072 3.98698 41.2098 3.67448 41.215 3.27344C41.2202 2.86719 41.2228 2.55469 41.2228 2.33594L39.0431 12H36.7072L34.5431 2.33594C34.5431 2.55469 34.5457 2.86719 34.5509 3.27344C34.5561 3.67448 34.5588 3.98698 34.5588 4.21094V12Z" fill="white"/>
<path d="M51.9394 6.96875H46.3456V9.92969H52.7206V12H43.9941V0.484375H52.4394V2.52344H46.3456V4.96875H51.9394V6.96875Z" fill="white"/>
<path d="M57.7262 7.48438H55.2419V12H52.8903V0.484375H58.5387C59.346 0.5 59.9658 0.598958 60.3981 0.78125C60.8356 0.963542 61.2054 1.23177 61.5075 1.58594C61.7575 1.8776 61.9554 2.20052 62.1012 2.55469C62.2471 2.90885 62.32 3.3125 62.32 3.76562C62.32 4.3125 62.182 4.85156 61.9059 5.38281C61.6299 5.90885 61.1742 6.28125 60.5387 6.5C61.07 6.71354 61.445 7.01823 61.6637 7.41406C61.8877 7.80469 61.9997 8.40365 61.9997 9.21094V9.98438C61.9997 10.5104 62.0205 10.8672 62.0622 11.0547C62.1247 11.3516 62.2705 11.5703 62.4997 11.7109V12H59.8512C59.7783 11.7448 59.7262 11.5391 59.695 11.3828C59.6325 11.0599 59.5986 10.7292 59.5934 10.3906L59.5778 9.32031C59.5674 8.58594 59.432 8.09635 59.1716 7.85156C58.9164 7.60677 58.4346 7.48438 57.7262 7.48438ZM59.1872 5.39062C59.6664 5.17188 59.9059 4.73958 59.9059 4.09375C59.9059 3.39583 59.6742 2.92708 59.2106 2.6875C58.9502 2.55208 58.5596 2.48438 58.0387 2.48438H55.2419V5.57812H57.9684C58.5101 5.57812 58.9164 5.51562 59.1872 5.39062Z" fill="white"/>
<path d="M70.7631 11.1406C69.9037 11.9271 68.8048 12.3203 67.4662 12.3203C65.81 12.3203 64.5079 11.7891 63.56 10.7266C62.6121 9.65885 62.1381 8.19531 62.1381 6.33594C62.1381 4.32552 62.6772 2.77604 63.7553 1.6875C64.6928 0.739583 65.8855 0.265625 67.3334 0.265625C69.2709 0.265625 70.6876 0.901042 71.5834 2.17188C72.0782 2.88542 72.3438 3.60156 72.3803 4.32031H69.9741C69.8178 3.76823 69.6173 3.35156 69.3725 3.07031C68.935 2.57031 68.2866 2.32031 67.4272 2.32031C66.5522 2.32031 65.8621 2.67448 65.3569 3.38281C64.8517 4.08594 64.5991 5.08333 64.5991 6.375C64.5991 7.66667 64.8647 8.63542 65.3959 9.28125C65.9324 9.92188 66.6121 10.2422 67.435 10.2422C68.2787 10.2422 68.922 9.96615 69.3647 9.41406C69.6095 9.11719 69.8126 8.67188 69.9741 8.07812H72.3569C72.1485 9.33333 71.6173 10.3542 70.7631 11.1406Z" fill="white"/>
<path d="M79.4678 12V6.85938H74.9678V12H72.585V0.484375H74.9678V4.875H79.4678V0.484375H81.8584V12H79.4678Z" fill="white"/>
<path d="M89.4653 9.63281H85.2231L84.4262 12H81.9106L86.02 0.484375H88.7387L92.8169 12H90.2075L89.4653 9.63281ZM88.7934 7.64844L87.3559 3.11719L85.8716 7.64844H88.7934Z" fill="white"/>
<path d="M102.158 12H99.7519L95.0488 3.82031V12H92.8066V0.484375H95.33L99.9159 8.52344V0.484375H102.158V12Z" fill="white"/>
<path d="M107.449 12H102.488V0.484375H107.449C108.163 0.494792 108.756 0.578125 109.23 0.734375C110.038 1 110.691 1.48698 111.191 2.19531C111.592 2.76823 111.866 3.38802 112.012 4.05469C112.157 4.72135 112.23 5.35677 112.23 5.96094C112.23 7.49219 111.923 8.78906 111.308 9.85156C110.475 11.2839 109.189 12 107.449 12ZM109.238 3.42188C108.868 2.79688 108.137 2.48438 107.043 2.48438H104.824V10H107.043C108.178 10 108.97 9.4401 109.418 8.32031C109.663 7.70573 109.785 6.97396 109.785 6.125C109.785 4.95312 109.603 4.05208 109.238 3.42188Z" fill="white"/>
<path d="M112.263 0.484375H114.654V12H112.263V0.484375Z" fill="white"/>
<path d="M119.483 10.3359C120.051 10.3359 120.512 10.2734 120.866 10.1484C121.538 9.90885 121.874 9.46354 121.874 8.8125C121.874 8.43229 121.707 8.13802 121.374 7.92969C121.041 7.72656 120.517 7.54688 119.804 7.39062L118.585 7.11719C117.387 6.84635 116.559 6.55208 116.101 6.23438C115.325 5.70312 114.937 4.8724 114.937 3.74219C114.937 2.71094 115.312 1.85417 116.062 1.17188C116.812 0.489583 117.913 0.148438 119.366 0.148438C120.58 0.148437 121.614 0.471354 122.468 1.11719C123.327 1.75781 123.778 2.6901 123.819 3.91406H121.507C121.465 3.22135 121.163 2.72917 120.601 2.4375C120.226 2.24479 119.759 2.14844 119.202 2.14844C118.582 2.14844 118.088 2.27344 117.718 2.52344C117.348 2.77344 117.163 3.1224 117.163 3.57031C117.163 3.98177 117.345 4.28906 117.71 4.49219C117.944 4.6276 118.444 4.78646 119.21 4.96875L121.194 5.44531C122.064 5.65365 122.72 5.93229 123.163 6.28125C123.851 6.82292 124.194 7.60677 124.194 8.63281C124.194 9.6849 123.791 10.5599 122.983 11.2578C122.181 11.9505 121.046 12.2969 119.577 12.2969C118.077 12.2969 116.897 11.9557 116.038 11.2734C115.179 10.5859 114.749 9.64323 114.749 8.44531H117.046C117.119 8.97135 117.262 9.36458 117.476 9.625C117.866 10.099 118.536 10.3359 119.483 10.3359Z" fill="white"/>
<path d="M132.391 6.96875H126.798V9.92969H133.173V12H124.446V0.484375H132.891V2.52344H126.798V4.96875H132.391V6.96875Z" fill="white"/>
</svg>
